<svg width="32" height="32" viewBox="0 0 32 32" fill="none" xmlns="http://www.w3.org/2000/svg">
<g clip-path="url(#clip0_16052_96628)">
<rect width="32" height="32" fill="url(#paint0_linear_16052_96628)"/>
<rect width="32" height="32" fill="url(#paint1_linear_16052_96628)"/>
<circle opacity="0.1" cx="16.0146" cy="16" r="17.5" fill="white"/>
<circle opacity="0.1" cx="16.0146" cy="16" r="14.5" fill="white"/>
<path d="M25.1696 16.1753C25.1696 16.3006 25.0703 16.4009 24.9462 16.4009H21.6938V17.7291H24.6482C24.7724 17.7291 24.8717 17.8294 24.8717 17.9547V18.8068C24.8717 18.9321 24.7724 19.0323 24.6482 19.0323H21.7186V20.4859H25.0951C25.2193 20.4859 25.3186 20.5862 25.3186 20.7115V20.7365L25.2193 21.5886C25.2193 21.6889 25.12 21.7891 24.9958 21.7891H20.4275C20.3034 21.7891 20.2041 21.6889 20.2041 21.5636V15.3232C20.2041 15.1979 20.3034 15.0977 20.4275 15.0977H24.971C25.0951 15.0977 25.1944 15.1979 25.1944 15.3232V16.1753H25.1696Z" fill="white"/>
<path d="M10.1737 21.5385C10.1737 21.6638 10.0744 21.7641 9.95025 21.7641H8.88266C8.75852 21.7641 8.65921 21.6638 8.65921 21.5385V16.4009H6.62335C6.49921 16.4009 6.3999 16.3006 6.3999 16.1753V15.3232C6.3999 15.1979 6.49921 15.0977 6.62335 15.0977H12.2344C12.3585 15.0977 12.4578 15.1979 12.4578 15.3232V16.1753C12.4578 16.3006 12.3585 16.4009 12.2344 16.4009H10.1985L10.1737 21.5385Z" fill="white"/>
<path d="M13.7737 21.7641C13.6496 21.7641 13.5503 21.6638 13.5503 21.5385V15.3232C13.5503 15.1979 13.6496 15.0977 13.7737 15.0977H16.5048C17.2744 15.0977 17.8455 15.2731 18.2179 15.649C18.5903 15.9999 18.7641 16.5011 18.7641 17.1026C18.7641 17.5036 18.6896 17.8294 18.5406 18.1051C18.3917 18.3807 18.1931 18.5812 17.9944 18.6815C17.771 18.8068 17.2993 18.882 17.1255 18.907L19.1365 21.4884C19.1613 21.5135 19.1613 21.5636 19.1613 21.5886C19.1613 21.6889 19.0868 21.7641 18.9875 21.7641H17.7958C17.6717 21.7641 17.5475 21.6889 17.4731 21.5886L15.6855 19.2328C15.6358 19.1577 15.611 19.0825 15.611 19.0073C15.611 18.9822 15.611 18.9321 15.611 18.907L15.7848 18.1552C15.8096 18.1051 15.8593 18.0549 15.9089 18.0549C16.2317 18.0549 16.7531 17.9798 16.902 17.8544C17.1006 17.7291 17.1751 17.4785 17.1751 17.1527C17.1751 16.877 17.1006 16.6765 16.9765 16.5512C16.8275 16.4259 16.5793 16.3507 16.2317 16.3507H14.9903V21.5385C14.9903 21.6638 14.891 21.7641 14.7668 21.7641H13.7737Z" fill="white"/>
<path d="M11.8872 14.0195H6.3999V9.98438H11.8872V14.0195ZM9.57764 11.0371C9.10623 11.0372 8.85812 11.2373 8.85791 11.5879C8.85791 11.8886 9.00724 12.0645 9.30518 12.1396L9.52783 12.1895C9.70147 12.2395 9.77672 12.29 9.77686 12.415C9.77686 12.5905 9.67691 12.6162 9.40381 12.6162C9.27963 12.6162 9.05637 12.5908 8.98193 12.5908C8.90747 12.5908 8.88232 12.5908 8.88232 12.666L8.85791 12.8916C8.85791 12.9417 8.85808 12.9668 8.90771 12.9668C9.00714 12.9668 9.23074 12.9922 9.4292 12.9922C9.90075 12.9921 10.2485 12.8162 10.2485 12.3652C10.2485 12.1146 10.1487 11.9137 9.75146 11.8135L9.52783 11.7637C9.37919 11.7136 9.30528 11.6635 9.30518 11.5635C9.30518 11.4132 9.45354 11.3877 9.57764 11.3877C9.77626 11.3877 9.95042 11.4131 10.0249 11.4131C10.0992 11.4131 10.1245 11.4128 10.1245 11.3379L10.1489 11.1377C10.1489 11.0876 10.1488 11.0625 10.0991 11.0625C9.9998 11.0625 9.82584 11.0371 9.57764 11.0371ZM7.16943 11.0625C7.11985 11.0625 7.09521 11.0876 7.09521 11.1377V12.8916C7.09523 12.9417 7.11987 12.9668 7.16943 12.9668H7.44287C7.49235 12.9667 7.51707 12.9416 7.51709 12.8916V11.4131H7.76514C7.96376 11.4131 8.03857 11.4632 8.03857 11.6387C8.03853 11.7888 7.98895 11.8392 7.91455 11.8643C7.81533 11.8893 7.78994 11.839 7.76514 11.9639L7.74072 12.0898V12.165C7.74072 12.1899 7.74059 12.215 7.76514 12.2646L8.11279 12.8916C8.13759 12.9417 8.16257 12.9667 8.23682 12.9668H8.56006C8.60966 12.9667 8.65908 12.9413 8.63428 12.8662L8.2124 12.1396C8.3365 12.0645 8.51017 11.9392 8.51025 11.6387C8.51025 11.2629 8.28693 11.0626 7.84033 11.0625H7.16943ZM10.7944 11.0625C10.7448 11.0625 10.7202 11.0876 10.7202 11.1377V12.8916C10.7202 12.9417 10.7448 12.9668 10.7944 12.9668H11.0679C11.1172 12.9667 11.1421 12.9416 11.1421 12.8916V11.1377C11.1421 11.0877 11.1173 11.0626 11.0679 11.0625H10.7944Z" fill="white"/>
<path d="M13.9722 12.3903C13.9474 12.3402 13.9226 12.3151 13.9226 12.2399C13.9226 12.2149 13.9226 12.1898 13.9226 12.1898L13.997 11.8389C13.997 11.8139 14.0467 11.7638 14.0715 11.7638V11.7638C14.1957 11.7638 14.295 11.7387 14.3943 11.7387C14.5184 11.7387 14.5929 11.7136 14.6674 11.6635C14.7419 11.6134 14.7915 11.5633 14.8412 11.4881C14.8908 11.4129 14.8908 11.3126 14.8908 11.1873C14.8908 10.9868 14.8412 10.8365 14.7419 10.7613C14.6426 10.661 14.4688 10.6109 14.1957 10.6109H13.5998V13.9191C13.5998 13.9943 13.5502 14.0444 13.4757 14.0444H12.9791C12.9046 14.0444 12.855 13.9943 12.855 13.9191V10.1097C12.855 10.0345 12.9046 9.98438 12.9791 9.98438H14.3446C14.7915 9.98438 15.1143 10.0846 15.3377 10.3102C15.5364 10.5107 15.6357 10.8114 15.6357 11.1623C15.6357 11.3377 15.6108 11.5131 15.5612 11.6384C15.5115 11.7387 15.437 11.8389 15.3377 11.9392C15.2384 12.0144 15.1391 12.0896 15.015 12.1397C14.8908 12.1898 14.7915 12.2149 14.6674 12.2399L15.8343 13.8689C15.8591 13.894 15.8591 13.9191 15.8591 13.9191C15.8591 13.9692 15.8095 14.0193 15.7598 14.0193H15.2136C15.1391 14.0193 15.0646 13.9692 15.015 13.9191L13.9722 12.3903Z" fill="white"/>
<path d="M18.8633 13.9191C18.8633 13.9692 18.8136 14.0193 18.7392 14.0193H16.4799C16.4054 14.0193 16.3557 13.9692 16.3557 13.894V10.1097C16.3557 10.0345 16.4054 9.98438 16.4799 9.98438H18.7143C18.7888 9.98438 18.8385 10.0345 18.8385 10.1097V10.5107C18.8385 10.5859 18.7888 10.636 18.7143 10.636H17.1005V11.6384H18.5405C18.615 11.6384 18.6647 11.6886 18.6647 11.7638V12.1397C18.6647 12.2149 18.615 12.265 18.5405 12.265H17.1005V13.3928H18.7888C18.8633 13.3928 18.913 13.4429 18.913 13.5181C18.913 13.5181 18.913 13.5181 18.913 13.5431L18.8633 13.9191Z" fill="white"/>
<path d="M25.1944 13.9191C25.1944 13.9692 25.1447 14.0193 25.0702 14.0193H22.8109C22.7364 14.0193 22.6868 13.9692 22.6868 13.894V10.1097C22.6868 10.0345 22.7364 9.98438 22.8109 9.98438H25.0454C25.1199 9.98438 25.1695 10.0345 25.1695 10.1097V10.5107C25.1695 10.5859 25.1199 10.636 25.0454 10.636H23.4316V11.6384H24.8716C24.9461 11.6384 24.9957 11.6886 24.9957 11.7638V12.1397C24.9957 12.2149 24.9461 12.265 24.8716 12.265H23.4316V13.3928H25.1199C25.1944 13.3928 25.244 13.4429 25.244 13.5181C25.244 13.5181 25.244 13.5181 25.244 13.5431L25.1944 13.9191Z" fill="white"/>
<path d="M21.1475 13.9191C21.1475 13.9943 21.0978 14.0444 21.0234 14.0444H20.5268C20.4523 14.0444 20.4027 13.9943 20.4027 13.9191V10.636H19.3351C19.2606 10.636 19.2109 10.5859 19.2109 10.5107V10.1097C19.2109 10.0345 19.2606 9.98438 19.3351 9.98438H22.2151C22.2896 9.98438 22.3392 10.0345 22.3392 10.1097V10.5107C22.3392 10.5859 22.2896 10.636 22.2151 10.636H21.1475V13.9191Z" fill="white"/>
</g>
<defs>
<linearGradient id="paint0_linear_16052_96628" x1="32" y1="32" x2="0" y2="0" gradientUnits="userSpaceOnUse">
<stop stop-color="#017538"/>
<stop offset="0.548077" stop-color="#06A73B"/>
<stop offset="1" stop-color="#59B947"/>
</linearGradient>
<linearGradient id="paint1_linear_16052_96628" x1="32" y1="32" x2="0" y2="0" gradientUnits="userSpaceOnUse">
<stop stop-color="#A4BA1B"/>
<stop offset="0.505112" stop-color="#A4BB1B"/>
<stop offset="1" stop-color="#C0CB22"/>
</linearGradient>
<clipPath id="clip0_16052_96628">
<rect width="32" height="32" fill="white"/>
</clipPath>
</defs>
</svg>
