<svg width="32" height="32" viewBox="0 0 32 32" fill="none" xmlns="http://www.w3.org/2000/svg">
<g clip-path="url(#clip0_16049_96559)">
<rect width="32" height="32" fill="url(#paint0_linear_16049_96559)"/>
<circle opacity="0.1" cx="16.0146" cy="16" r="17.5" fill="white"/>
<circle opacity="0.1" cx="16.0146" cy="16" r="14.5" fill="white"/>
<path d="M25.1618 16.4077C25.1618 16.533 25.0614 16.6333 24.9358 16.6333H21.9972V17.9365H24.6595C24.7851 17.9365 24.8856 18.0367 24.8856 18.1621V18.9891C24.8856 19.1144 24.7851 19.2146 24.6595 19.2146H21.9972V20.6432H25.0614C25.1869 20.6432 25.2874 20.7434 25.2874 20.8687V20.8938L25.1869 21.7208C25.1618 21.8211 25.0865 21.9213 24.9609 21.9213H20.6911C20.5656 21.9213 20.4651 21.8211 20.4651 21.6958V15.5556C20.4651 15.4303 20.5656 15.3301 20.6911 15.3301H24.9358C25.0614 15.3301 25.1618 15.4303 25.1618 15.5556V16.4077V16.4077Z" fill="white"/>
<path d="M6.60107 15.3359H9.06201C9.53922 15.3359 9.96652 15.386 10.3433 15.4863C10.7451 15.5865 11.0719 15.7621 11.3481 16.0127C11.6242 16.2632 11.8498 16.5889 12.0005 17.0146C12.1512 17.4406 12.2524 17.967 12.2524 18.6435C12.2524 19.2951 12.1766 19.822 12.0259 20.248C11.8752 20.6489 11.6488 20.9994 11.3726 21.25C11.0964 21.5005 10.7452 21.6761 10.3687 21.7763C9.96681 21.8766 9.56459 21.9267 9.0874 21.9267H6.62549C6.50012 21.9265 6.3999 21.8263 6.3999 21.7011V15.5361C6.39996 15.4108 6.50064 15.3108 6.60107 15.3359ZM7.9624 16.6689V20.7783H9.09326C9.49497 20.7782 9.82138 20.7034 10.0474 20.5781C10.2985 20.4528 10.4489 20.2017 10.5493 19.8759C10.6497 19.5502 10.7004 19.1495 10.6753 18.7236C10.6753 18.072 10.5994 17.621 10.4487 17.3203C10.298 17.0196 10.0973 16.8437 9.84619 16.7685C9.59513 16.6934 9.36875 16.6689 9.11768 16.6689H7.9624Z" fill="white"/>
<path d="M19.0473 19.5404C19.0473 21.2446 18.0427 22.0717 16.1841 22.0717C14.3255 22.0717 13.3208 21.2446 13.3208 19.5404V15.5556C13.3208 15.4303 13.4213 15.3301 13.5468 15.3301H14.6268C14.7524 15.3301 14.8529 15.4303 14.8529 15.5556V19.4903C14.8529 20.3925 15.3301 20.8186 16.2092 20.8186C17.1134 20.8186 17.5655 20.3925 17.5655 19.4903V15.5556C17.5655 15.4303 17.6659 15.3301 17.7915 15.3301H18.8715C18.9971 15.3301 19.0975 15.4303 19.0975 15.5556V19.5404H19.0473Z" fill="white"/>
<path d="M11.8755 14.1924H6.3999V10.207H11.8755V14.1924ZM9.60889 11.3213C9.13202 11.3214 8.88051 11.5215 8.88037 11.8721C8.88037 12.1727 9.05644 12.3486 9.33252 12.4238L9.55908 12.4736C9.73487 12.5238 9.81006 12.5746 9.81006 12.6748C9.80988 12.8498 9.70914 12.875 9.43311 12.875C9.30764 12.875 9.08234 12.8497 9.03174 12.8496C8.93127 12.8747 8.90549 12.8747 8.88037 12.9248L8.85596 13.1504C8.85596 13.2004 8.8807 13.2007 8.90576 13.2256C8.98111 13.2256 9.20776 13.251 9.40869 13.251C9.88563 13.2509 10.2123 13.1003 10.2124 12.6494C10.2124 12.3988 10.1113 12.1979 9.70947 12.0977L9.48389 12.0479C9.33333 11.9978 9.25747 11.9727 9.25732 11.8477C9.25732 11.6974 9.40814 11.6719 9.53369 11.6719C9.70942 11.6719 9.9104 11.6972 9.98584 11.6973C10.0611 11.6973 10.0864 11.6969 10.0864 11.6221L10.1616 11.4209C10.1615 11.3711 10.1369 11.3707 10.1118 11.3457C10.0365 11.3457 9.83493 11.3213 9.60889 11.3213ZM7.14502 11.3213C7.09479 11.3213 7.06982 11.3464 7.06982 11.3965V13.125C7.06982 13.1751 7.09479 13.2002 7.14502 13.2002H7.42139C7.47156 13.2002 7.49658 13.1751 7.49658 13.125V11.6719H7.77295C7.94875 11.6719 8.02393 11.7471 8.02393 11.8975C8.02391 12.0475 7.94915 12.0979 7.89893 12.123C7.82362 12.1731 7.79805 12.123 7.77295 12.248L7.72314 12.3486V12.4238C7.72314 12.4489 7.72248 12.4744 7.74756 12.5244L8.09912 13.1504C8.12424 13.2005 8.14975 13.2256 8.2251 13.2256H8.55127C8.6015 13.2256 8.65228 13.2002 8.60205 13.125L8.17432 12.3984C8.32501 12.2982 8.47606 12.1731 8.47607 11.8975C8.47607 11.5215 8.27485 11.3213 7.82275 11.3213H7.14502ZM10.7173 11.3213C10.6671 11.3213 10.6421 11.3464 10.6421 11.3965V13.125C10.6421 13.1751 10.6671 13.2002 10.7173 13.2002H10.9937C11.0437 13.2001 11.0688 13.175 11.0688 13.125V11.3965C11.0688 11.3464 11.0437 11.3214 10.9937 11.3213H10.7173Z" fill="white"/>
<path d="M13.9794 12.5879C13.9543 12.5628 13.9292 12.5127 13.9292 12.4626C13.9292 12.4375 13.9292 12.4125 13.9292 12.4125L14.0045 12.0616C14.0045 12.0365 14.0547 11.9864 14.0798 11.9864V11.9864C14.2054 11.9864 14.3059 11.9614 14.3812 11.9614C14.4817 11.9363 14.5822 11.9112 14.6575 11.8611C14.7329 11.811 14.7831 11.7609 14.8333 11.6857C14.8836 11.6105 14.8836 11.5102 14.8836 11.3849C14.8836 11.1844 14.8333 11.0341 14.7329 10.9589C14.6324 10.8586 14.4566 10.8336 14.2054 10.8336H13.6026V14.1167C13.6026 14.1918 13.5524 14.242 13.4771 14.242H12.9998C12.9245 14.242 12.8743 14.1918 12.8743 14.1167V10.3574C12.8994 10.2572 12.9496 10.207 13.025 10.207H14.3812C14.8333 10.207 15.1598 10.3073 15.3608 10.5078C15.5617 10.7083 15.6622 10.9839 15.6622 11.3599C15.6622 11.5353 15.6371 11.6857 15.5868 11.811C15.5366 11.9363 15.4612 12.0365 15.3608 12.1117C15.2603 12.1869 15.1598 12.2621 15.0594 12.3122C14.9338 12.3623 14.8333 12.3874 14.7078 12.4125L15.8631 14.0164C15.8882 14.0415 15.8882 14.0665 15.8882 14.0665C15.8882 14.1167 15.838 14.1668 15.7878 14.1668H15.2352C15.1598 14.1668 15.0845 14.1167 15.0343 14.0665L13.9794 12.5879Z" fill="white"/>
<path d="M18.9582 14.1167C18.9582 14.1668 18.9079 14.2169 18.8326 14.2169H16.5721C16.4968 14.2169 16.4465 14.1668 16.4465 14.0916V10.3323C16.4465 10.2572 16.4968 10.207 16.5721 10.207L18.8075 10.2321C18.8828 10.2321 18.933 10.2822 18.933 10.3574V10.7584C18.933 10.8336 18.8828 10.8837 18.8075 10.8837H17.2V11.8862H18.6568C18.7321 11.8862 18.7823 11.9363 18.7823 12.0115V12.3874C18.7823 12.4626 18.7321 12.5127 18.6568 12.5127H17.2V13.6405H18.8828C18.9582 13.6405 19.0084 13.6906 19.0084 13.7658C19.0084 13.7658 19.0084 13.7658 19.0084 13.7909L18.9582 14.1167Z" fill="white"/>
<path d="M25.2091 14.1167C25.2091 14.1668 25.1589 14.2169 25.0836 14.2169H22.8231C22.7477 14.2169 22.6975 14.1668 22.6975 14.0916V10.3323C22.6975 10.2572 22.7477 10.207 22.8231 10.207H25.0584C25.1338 10.207 25.184 10.2572 25.184 10.3323V10.7333C25.184 10.8085 25.1338 10.8586 25.0584 10.8586H23.451V11.8611H24.9077C24.9831 11.8611 25.0333 11.9112 25.0333 11.9864V12.3623C25.0333 12.4375 24.9831 12.4876 24.9077 12.4876H23.451V13.6154H25.1338C25.2091 13.6154 25.2594 13.6655 25.2594 13.7407C25.2594 13.7407 25.2594 13.7407 25.2594 13.7658L25.2091 14.1167Z" fill="white"/>
<path d="M21.0846 14.0916C21.0846 14.1668 21.0343 14.2169 20.959 14.2169H20.4567C20.3813 14.2169 20.3311 14.1668 20.3311 14.0916V10.8586H19.2511C19.1757 10.8586 19.1255 10.8085 19.1255 10.7333V10.3323C19.1506 10.2572 19.2008 10.207 19.2762 10.207H22.1646C22.2399 10.207 22.2901 10.2572 22.2901 10.3323V10.7333C22.2901 10.8085 22.2399 10.8586 22.1646 10.8586H21.0846V14.0916Z" fill="white"/>
</g>
<defs>
<linearGradient id="paint0_linear_16049_96559" x1="32" y1="32" x2="0" y2="0" gradientUnits="userSpaceOnUse">
<stop stop-color="#017538"/>
<stop offset="0.548077" stop-color="#06A73B"/>
<stop offset="1" stop-color="#59B947"/>
</linearGradient>
<clipPath id="clip0_16049_96559">
<rect width="32" height="32" fill="white"/>
</clipPath>
</defs>
</svg>
