<svg width="32" height="32" viewBox="0 0 32 32" fill="none" xmlns="http://www.w3.org/2000/svg">
<g clip-path="url(#clip0_16049_96554)">
<rect width="32" height="32" fill="url(#paint0_linear_16049_96554)"/>
<circle opacity="0.1" cx="16.0146" cy="16" r="17.5" fill="white"/>
<circle opacity="0.1" cx="16.0146" cy="16" r="14.5" fill="white"/>
<path d="M22.5247 15.1484C23.2529 15.1484 23.8304 15.2733 24.2825 15.5488C24.7346 15.8245 25.0363 16.226 25.2122 16.7773C25.3879 17.3285 25.4631 17.9297 25.4631 18.5811C25.4631 19.2327 25.3875 19.7849 25.262 20.2109C25.1364 20.6366 24.9357 21.0122 24.6848 21.2627C24.4337 21.5384 24.1319 21.7145 23.7551 21.8398C23.3784 21.9651 22.9764 22.0146 22.4993 22.0146C22.0222 22.0146 21.6203 21.9651 21.2688 21.8398C20.9172 21.7145 20.5903 21.5384 20.3391 21.2627C20.0882 20.9872 19.8875 20.6366 19.762 20.2109C19.6364 19.7849 19.5608 19.2327 19.5608 18.5811C19.5608 17.6289 19.7116 16.9022 20.0129 16.376C20.3143 15.8498 20.6911 15.5244 21.1682 15.374C21.6203 15.2237 22.0726 15.1484 22.5247 15.1484ZM22.4993 16.376C22.1226 16.376 21.8213 16.4515 21.6204 16.627C21.4196 16.8023 21.2943 17.0527 21.219 17.4033C21.1688 17.7542 21.1184 18.1306 21.1184 18.5566C21.1184 18.9825 21.1434 19.3332 21.1936 19.6338C21.2438 19.9094 21.319 20.1351 21.4446 20.3105C21.545 20.4859 21.6957 20.611 21.8713 20.6611C22.0471 20.7363 22.2482 20.7871 22.4993 20.7871C22.8759 20.7871 23.1772 20.7115 23.3782 20.5361C23.579 20.3608 23.7052 20.1104 23.7805 19.7598C23.8559 19.4089 23.8811 19.0071 23.8811 18.5811C23.8811 17.955 23.8308 17.479 23.7053 17.1533C23.5797 16.8275 23.4284 16.6266 23.2024 16.5264C22.9764 16.4262 22.7503 16.376 22.4993 16.376Z" fill="white"/>
<path d="M11.8755 14.2207H6.3999V10.2363H11.8755V14.2207ZM7.15381 11.2881C7.10372 11.2881 7.07778 11.3134 7.07764 11.3633V13.0928C7.07764 13.1429 7.10358 13.168 7.15381 13.168H7.43018C7.48009 13.1678 7.50537 13.1427 7.50537 13.0928V11.6396H7.78174C7.95725 11.6398 8.03271 11.715 8.03271 11.8652C8.03262 12.0154 7.95694 12.0658 7.90674 12.0908C7.8316 12.1407 7.80682 12.0908 7.78174 12.2158L7.73096 12.3164V12.3916C7.73096 12.4165 7.73143 12.4414 7.75635 12.4912L8.10791 13.1182C8.133 13.1682 8.1586 13.1934 8.23389 13.1934H8.56006C8.61025 13.1933 8.66005 13.1679 8.60986 13.0928L8.18311 12.3662C8.33375 12.266 8.48476 12.1407 8.48486 11.8652C8.48486 11.4893 8.28364 11.2881 7.83154 11.2881H7.15381ZM9.61475 11.2637C9.13772 11.2637 8.88641 11.4638 8.88623 11.8145C8.88623 12.1152 9.06215 12.291 9.33838 12.3662L9.56494 12.416C9.74054 12.4661 9.81592 12.517 9.81592 12.6172C9.81577 12.7923 9.71503 12.8174 9.43896 12.8174C9.31338 12.8174 9.08685 12.792 9.03662 12.792C8.93663 12.7921 8.91129 12.8172 8.88623 12.8672L8.86084 13.0928C8.86084 13.1429 8.88652 13.1429 8.91162 13.168C8.98705 13.168 9.21281 13.1933 9.41357 13.1934C9.89077 13.1934 10.2173 13.0429 10.2173 12.5918C10.2173 12.3412 10.1172 12.1403 9.71533 12.04L9.48877 11.9902C9.33843 11.9402 9.26329 11.915 9.26318 11.79C9.26318 11.6397 9.41397 11.6143 9.53955 11.6143C9.71533 11.6143 9.91637 11.6396 9.9917 11.6396C10.0668 11.6396 10.0922 11.6393 10.0923 11.5645L10.1675 11.3633C10.1673 11.3136 10.1417 11.3131 10.1167 11.2881C10.041 11.288 9.8404 11.2637 9.61475 11.2637ZM10.7954 11.2881C10.7453 11.2881 10.7204 11.3135 10.7202 11.3633V13.0928C10.7202 13.1429 10.7452 13.168 10.7954 13.168H11.0718C11.1219 13.1679 11.147 13.1428 11.147 13.0928V11.3633C11.1468 11.3135 11.1217 11.2882 11.0718 11.2881H10.7954Z" fill="white"/>
<path d="M13.9599 12.6152C13.9347 12.5902 13.9096 12.5401 13.9096 12.4899C13.9096 12.4649 13.9096 12.4398 13.9096 12.4398L13.985 12.0889C13.985 12.0639 14.0352 12.0138 14.0603 12.0138V12.0138C14.1859 12.0138 14.2864 11.9887 14.3617 11.9887C14.4622 11.9636 14.5626 11.9386 14.638 11.8884C14.7133 11.8383 14.7636 11.7882 14.8138 11.713C14.864 11.6378 14.864 11.5376 14.864 11.4123C14.864 11.2118 14.8138 11.0614 14.7133 10.9862C14.6129 10.886 14.4371 10.8609 14.1859 10.8609H13.5831V14.144C13.5831 14.2192 13.5329 14.2693 13.4575 14.2693H12.9803C12.905 14.2693 12.8547 14.2192 12.8547 14.144V10.3847C12.8799 10.2845 12.9301 10.2344 13.0054 10.2344H14.3617C14.8138 10.2344 15.1403 10.3346 15.3412 10.5351C15.5422 10.7356 15.6426 11.0113 15.6426 11.3872C15.6426 11.5626 15.6175 11.713 15.5673 11.8383C15.5171 11.9636 15.4417 12.0639 15.3412 12.1391C15.2408 12.2143 15.1403 12.2894 15.0399 12.3396C14.9143 12.3897 14.8138 12.4147 14.6882 12.4398L15.8436 14.0438C15.8687 14.0688 15.8687 14.0939 15.8687 14.0939C15.8687 14.144 15.8185 14.1941 15.7682 14.1941H15.2157C15.1403 14.1941 15.065 14.144 15.0147 14.0939L13.9599 12.6152Z" fill="white"/>
<path d="M18.8576 14.1186C18.8576 14.1687 18.8073 14.2189 18.732 14.2189H16.4715C16.3962 14.2189 16.3459 14.1687 16.3459 14.0936V10.3343C16.3459 10.2591 16.3962 10.209 16.4715 10.209L18.7069 10.234C18.7822 10.234 18.8325 10.2842 18.8325 10.3594V10.7603C18.8325 10.8355 18.7822 10.8857 18.7069 10.8857H17.0994V11.8881H18.5562C18.6315 11.8881 18.6818 11.9382 18.6818 12.0134V12.3894C18.6818 12.4645 18.6315 12.5147 18.5562 12.5147H17.0994V13.6424H18.7822C18.8576 13.6424 18.9078 13.6926 18.9078 13.7677C18.9078 13.7677 18.9078 13.7677 18.9078 13.7928L18.8576 14.1186Z" fill="white"/>
<path d="M25.1869 14.1186C25.1869 14.1687 25.1367 14.2189 25.0613 14.2189H22.8009C22.7255 14.2189 22.6753 14.1687 22.6753 14.0936V10.3343C22.6753 10.2591 22.7255 10.209 22.8009 10.209H25.0362C25.1116 10.209 25.1618 10.2591 25.1618 10.3343V10.7353C25.1618 10.8105 25.1116 10.8606 25.0362 10.8606H23.4288V11.8631H24.8855C24.9609 11.8631 25.0111 11.9132 25.0111 11.9884V12.3643C25.0111 12.4395 24.9609 12.4896 24.8855 12.4896H23.4288V13.6174H25.1116C25.1869 13.6174 25.2372 13.6675 25.2372 13.7427C25.2372 13.7427 25.2372 13.7427 25.2372 13.7677L25.1869 14.1186Z" fill="white"/>
<path d="M21.1432 14.1189C21.1432 14.1941 21.0929 14.2443 21.0176 14.2443H20.5152C20.4399 14.2443 20.3897 14.1941 20.3897 14.1189V10.886H19.3097C19.2343 10.886 19.1841 10.8359 19.1841 10.7607V10.3597C19.2092 10.2845 19.2594 10.2344 19.3348 10.2344H22.2232C22.2985 10.2344 22.3487 10.2845 22.3487 10.3597V10.7607C22.3487 10.8359 22.2985 10.886 22.2232 10.886H21.1432V14.1189Z" fill="white"/>
<path d="M11.7497 19.4819C11.7497 21.1861 10.9208 22.0131 9.06223 22.0131C7.20362 22.0131 6.3999 21.1861 6.3999 19.4819V15.497C6.3999 15.3717 6.50037 15.2715 6.62595 15.2715H7.70595C7.80641 15.2715 7.90688 15.3717 7.90688 15.497V19.4317C7.90688 20.334 8.18316 20.76 9.06223 20.76C9.96641 20.76 10.2176 20.334 10.2176 19.4317V15.497C10.2176 15.3717 10.318 15.2715 10.4436 15.2715H11.5236C11.6492 15.2715 11.7497 15.3717 11.7497 15.497V19.4819Z" fill="white"/>
<path d="M16.999 19.4819V15.497C16.999 15.3717 17.0994 15.2715 17.225 15.2715H18.1543C18.2799 15.2715 18.3804 15.3717 18.3804 15.497V21.6622C18.3804 21.7875 18.2799 21.8878 18.1543 21.8878H17.2501C17.0743 21.8878 16.9739 21.8377 16.8985 21.7123L14.4874 17.7526V21.6622C14.4874 21.7875 14.3869 21.8878 14.2613 21.8878H13.332C13.2064 21.8878 13.106 21.7875 13.106 21.6622V15.497C13.106 15.3717 13.2064 15.2715 13.332 15.2715H14.2362C14.412 15.2715 14.5125 15.3216 14.5878 15.4469L16.999 19.4819Z" fill="white"/>
</g>
<defs>
<linearGradient id="paint0_linear_16049_96554" x1="0" y1="0" x2="32" y2="32" gradientUnits="userSpaceOnUse">
<stop stop-color="#48AEE2"/>
<stop offset="0.509615" stop-color="#058EC5"/>
<stop offset="1" stop-color="#0175B7"/>
</linearGradient>
<clipPath id="clip0_16049_96554">
<rect width="32" height="32" fill="white"/>
</clipPath>
</defs>
</svg>
