<svg width="256" height="257" viewBox="0 0 256 257" fill="none" xmlns="http://www.w3.org/2000/svg">
<rect y="0.771484" width="256" height="256" rx="57" fill="url(#paint0_linear_3195_79083)"/>
<rect x="184.102" y="161.721" width="39.0336" height="19.3565" fill="white"/>
<path d="M183.166 185.17H226.896V156.453H183.166V185.17ZM212.714 164.578C212.714 164.155 212.841 164.008 213.263 164.008H221.309C221.732 164.008 221.858 164.155 221.858 164.578V166.06C221.858 166.483 221.732 166.632 221.309 166.632H215.764V169.51H220.8C221.223 169.51 221.351 169.658 221.351 170.082V171.562C221.351 171.985 221.223 172.134 220.8 172.134H215.764V177.042C215.764 177.468 215.638 177.614 215.215 177.614H213.266C212.845 177.614 212.717 177.468 212.717 177.042L212.714 164.578ZM199.88 164.578C199.88 164.155 200.006 164.008 200.431 164.008H205.154C208.411 164.008 209.892 165.49 209.892 168.135C209.892 170.187 208.727 171.109 207.692 171.773L210.781 176.895C211.12 177.42 210.76 177.614 210.462 177.614H208.157C207.65 177.614 207.48 177.466 207.268 177.107L204.75 172.578C204.62 172.391 204.547 172.171 204.538 171.943C204.55 171.785 204.578 171.629 204.624 171.478L204.835 170.589C205.024 169.784 205.238 170.064 205.85 169.807C206.338 169.594 206.824 169.256 206.824 168.177C206.824 166.991 206.21 166.525 204.94 166.525H202.93V177.042C202.93 177.466 202.804 177.614 202.381 177.614H200.434C200.009 177.614 199.883 177.466 199.883 177.042L199.88 164.578ZM188.211 177.065L188.465 175.435C188.55 174.969 188.697 174.91 189.248 174.948C189.799 174.987 191.323 175.123 192.21 175.123C194.156 175.123 194.961 174.912 194.961 173.724C194.961 172.919 194.41 172.54 193.121 172.202L191.547 171.798C189.495 171.273 188.311 169.979 188.311 167.799C188.311 165.387 190.002 163.863 193.495 163.863C194.722 163.853 195.949 163.917 197.169 164.054C197.443 164.096 197.592 164.229 197.55 164.54L197.294 166.127C197.21 166.594 197.062 166.651 196.513 166.615C195.963 166.578 194.651 166.466 193.338 166.466C192.365 166.466 191.351 166.678 191.351 167.778C191.351 168.562 191.837 168.899 192.895 169.177L194.47 169.578C197.268 170.299 198.066 171.677 198.066 173.514C198.066 176.645 195.617 177.746 192.246 177.746C191.024 177.75 189.802 177.687 188.587 177.557C188.318 177.508 188.165 177.382 188.211 177.065Z" fill="#AF001E"/>
<rect x="134.32" y="162.174" width="37.2061" height="18.4503" fill="white"/>
<path d="M131.99 185.179H174.821V156.463H131.99V185.179ZM160.424 177.076L160.681 175.445C160.765 174.978 160.912 174.92 161.461 174.957C162.01 174.994 163.534 175.132 164.434 175.132C166.383 175.132 167.186 174.922 167.186 173.733C167.186 172.93 166.635 172.548 165.344 172.207L163.77 171.807C161.716 171.282 160.532 169.987 160.532 167.806C160.532 165.395 162.225 163.873 165.718 163.873C166.945 163.862 168.172 163.925 169.392 164.062C169.668 164.104 169.815 164.237 169.773 164.549L169.519 166.137C169.435 166.601 169.285 166.662 168.737 166.623C168.19 166.585 166.875 166.473 165.563 166.473C164.588 166.473 163.574 166.686 163.574 167.787C163.574 168.569 164.057 168.908 165.117 169.186L166.691 169.589C169.49 170.307 170.289 171.688 170.289 173.525C170.289 176.656 167.84 177.756 164.468 177.756C163.245 177.758 162.022 177.693 160.807 177.56C160.53 177.52 160.383 177.392 160.424 177.076ZM148.12 164.587C148.12 164.166 148.246 164.017 148.671 164.017H158.909C159.334 164.017 159.46 164.166 159.46 164.587V166.027C159.46 166.452 159.334 166.599 158.909 166.599H155.312V177.053C155.312 177.476 155.186 177.625 154.765 177.625H152.816C152.395 177.625 152.267 177.476 152.267 177.053V166.599H148.671C148.246 166.599 148.12 166.452 148.12 166.027V164.587ZM137.026 164.587C137.026 164.164 137.152 164.017 137.577 164.017H142.3C145.559 164.017 147.037 165.497 147.037 168.145C147.037 170.197 145.876 171.128 144.837 171.782L147.927 176.904C148.265 177.429 147.906 177.625 147.611 177.625H145.3C144.798 177.625 144.627 177.476 144.425 177.118L141.908 172.587C141.777 172.401 141.703 172.181 141.695 171.954C141.705 171.796 141.733 171.64 141.779 171.488L141.991 170.598C142.178 169.793 142.393 170.073 143.005 169.816C143.491 169.604 143.979 169.265 143.979 168.186C143.979 167.001 143.367 166.536 142.096 166.536H140.087V177.053C140.087 177.476 139.96 177.625 139.531 177.625H137.59C137.165 177.625 137.039 177.476 137.039 177.053L137.026 164.587Z" fill="#AF001E"/>
<rect x="83.1259" y="162.174" width="37.2061" height="18.4503" fill="white"/>
<path d="M79.6057 185.179H123.837V156.463H79.6057V185.179ZM108.794 164.589C108.794 164.166 108.922 164.015 109.344 164.015H114.067C117.325 164.015 118.809 165.499 118.809 168.142C118.809 170.196 117.644 171.116 116.608 171.782L119.695 176.902C120.035 177.427 119.674 177.625 119.377 177.625H117.058C116.552 177.625 116.381 177.475 116.171 177.116L113.654 172.587C113.522 172.4 113.447 172.18 113.439 171.952C113.451 171.794 113.48 171.638 113.524 171.487L113.738 170.598C113.927 169.791 114.138 170.073 114.752 169.814C115.238 169.603 115.725 169.263 115.725 168.184C115.725 166.999 115.111 166.536 113.843 166.536H111.831V177.051C111.831 177.475 111.705 177.625 111.282 177.625H109.335C108.913 177.625 108.786 177.475 108.786 177.051L108.794 164.589ZM95.7385 164.589C95.7385 164.167 95.8662 164.017 96.2912 164.017H106.521C106.944 164.017 107.07 164.167 107.07 164.589V166.029C107.07 166.454 106.944 166.599 106.521 166.599H102.924V177.053C102.924 177.475 102.798 177.625 102.377 177.625H100.428C100.005 177.625 99.8771 177.475 99.8771 177.053V166.597H96.2825C95.8574 166.597 95.7297 166.452 95.7297 166.027L95.7385 164.589ZM84.6539 164.589C84.6539 164.166 84.7781 164.015 85.2031 164.015H89.9259C93.1829 164.015 94.6645 165.499 94.6645 168.142C94.6645 170.196 93.5013 171.116 92.464 171.782L95.5531 176.902C95.8907 177.427 95.5321 177.625 95.2365 177.625H92.917C92.4098 177.625 92.2419 177.475 92.0267 177.116L89.5114 172.587C89.3809 172.4 89.3068 172.18 89.298 171.952C89.3109 171.794 89.3396 171.638 89.3837 171.487L89.5936 170.598C89.786 169.791 89.9976 170.073 90.6116 169.814C91.0996 169.603 91.5824 169.263 91.5824 168.184C91.5824 166.999 90.9702 166.536 89.702 166.536H87.6905V177.051C87.6905 177.475 87.5628 177.625 87.1412 177.625H85.1944C84.7693 177.625 84.6451 177.475 84.6451 177.051L84.6539 164.589Z" fill="#AF001E"/>
<rect x="37.5873" y="162.174" width="31.8749" height="18.4503" fill="white"/>
<path d="M33.2905 185.191H71.4596V156.474H33.2905V185.191ZM63.3766 164.602C63.3766 164.18 63.5008 164.031 63.9241 164.031H65.8692C66.2942 164.031 66.4237 164.18 66.4237 164.602V177.064C66.4237 177.487 66.2942 177.636 65.8692 177.636H63.9276C63.5043 177.636 63.3801 177.487 63.3801 177.064L63.3766 164.602ZM51.078 177.088L51.3334 175.458C51.4174 174.991 51.5643 174.933 52.1153 174.97C52.6663 175.007 54.1881 175.145 55.0784 175.145C57.0253 175.145 57.8282 174.933 57.8282 173.745C57.8282 172.944 57.2789 172.561 55.988 172.222L54.4225 171.821C52.3672 171.296 51.1865 170.003 51.1865 167.82C51.1865 165.408 52.878 163.886 56.3693 163.886C57.5994 163.876 58.829 163.939 60.0514 164.077C60.3243 164.119 60.4747 164.252 60.4292 164.561L60.1773 166.148C60.0951 166.617 59.9447 166.673 59.3954 166.634C58.8462 166.596 57.5308 166.487 56.2224 166.487C55.2464 166.487 54.2336 166.699 54.2336 167.801C54.2336 168.583 54.7181 168.922 55.7746 169.201L57.3489 169.601C60.1476 170.32 60.947 171.7 60.947 173.535C60.947 176.67 58.4981 177.771 55.1274 177.771C53.9045 177.774 52.6823 177.71 51.4664 177.58C51.19 177.529 51.0396 177.403 51.0815 177.088H51.078ZM38.3194 164.602C38.3194 164.178 38.4489 164.031 38.8722 164.031H43.595C46.8537 164.031 48.3353 165.511 48.3353 168.156C48.3353 170.21 47.1704 171.142 46.1348 171.797L49.2222 176.917C49.5632 177.442 49.2012 177.638 48.9055 177.638H46.5984C46.0929 177.638 45.9232 177.487 45.7115 177.129L43.1909 172.599C43.0615 172.413 42.988 172.193 42.9793 171.966C42.9903 171.808 43.019 171.651 43.065 171.499L43.2784 170.61C43.4673 169.806 43.6772 170.086 44.2912 169.829C44.7792 169.617 45.2655 169.277 45.2655 168.2C45.2655 167.012 44.6533 166.549 43.3834 166.549H41.3718V177.064C41.3718 177.487 41.2458 177.638 40.8225 177.638H38.8757C38.4524 177.638 38.3229 177.487 38.3229 177.064L38.3194 164.602Z" fill="#AF001E"/>
<path d="M147.264 131.593C145.756 133.688 143.388 133.891 139.945 133.891H136.536V142.453H140.378C146.126 142.453 149.178 141.35 151.483 139.576C154.933 136.929 156.672 133.416 158.782 127.961C160.989 122.255 173.959 87.4517 173.959 87.4517H163.482L153.753 115.92L143.409 87.4517H132.974L149.101 127.961C148.709 129.271 148.087 130.501 147.264 131.593Z" fill="white"/>
<path d="M53.4637 74.1885H33.5768V127.975H43.2932V108.032H52.5138C67.4203 108.032 73.9096 102.444 73.9096 90.8622C73.9096 77.0245 62.6982 74.1885 53.4637 74.1885ZM63.9416 90.9531C63.9416 97.7008 59.3663 98.7975 52.5068 98.7975H43.3002V83.4299H52.5068C58.5141 83.4299 63.9416 84.1774 63.9416 90.9391V90.9531Z" fill="white"/>
<path d="M94.8678 116.66C94.8678 108.676 100.511 103.606 111.868 102.432C114.92 102.118 118.3 102.055 121.59 102.055V101.552C121.59 96.1814 117.036 94.4423 112.028 94.4423C107.662 94.5351 103.453 96.0866 100.071 98.8495L96.3485 92.6194C99.8406 89.5952 106.127 86.8364 112.866 86.8364C122.973 86.8364 131.305 90.4682 131.305 101.455V117.959C131.305 121.793 131.508 124.754 131.668 127.974H122.33L121.883 123.085C119.453 126.689 114.682 128.742 108.725 128.742C101.44 128.729 94.8678 124.943 94.8678 116.66ZM104.904 115.814C104.813 119.09 107.461 121.507 112.084 121.507C116.491 121.507 121.492 118.315 121.59 113.88V109.473C111.812 109.081 105.058 110.374 104.904 115.793V115.814Z" fill="white"/>
<path d="M89.1205 74.1885H79.4028V127.975H89.1205V74.1885Z" fill="white"/>
<rect x="198.58" y="99.0485" width="10.3981" height="10.3981" fill="white"/>
<rect x="208.978" y="99.0485" width="18.5085" height="10.3981" fill="url(#paint1_linear_3195_79083)"/>
<rect x="180.071" y="99.0485" width="18.5085" height="10.3981" fill="url(#paint2_linear_3195_79083)"/>
<rect x="198.58" y="99.0485" width="18.5085" height="10.3981" transform="rotate(-90 198.58 99.0485)" fill="url(#paint3_linear_3195_79083)"/>
<rect x="198.58" y="127.955" width="18.5085" height="10.3981" transform="rotate(-90 198.58 127.955)" fill="url(#paint4_linear_3195_79083)"/>
<rect x="180.071" y="83.6255" width="47.6231" height="47.6231" fill="url(#paint5_radial_3195_79083)"/>
<rect x="180.042" y="83.6039" width="47.6521" height="47.6521" fill="url(#paint6_radial_3195_79083)"/>
<rect x="180.042" y="83.6039" width="47.6521" height="47.6521" fill="url(#paint7_radial_3195_79083)" fill-opacity="0.2"/>
<defs>
<linearGradient id="paint0_linear_3195_79083" x1="0" y1="0.771484" x2="120.844" y2="196.187" gradientUnits="userSpaceOnUse">
<stop stop-color="#FF001E"/>
<stop offset="0.3" stop-color="#AF001E"/>
<stop offset="0.5" stop-color="#820000"/>
<stop offset="1" stop-color="#320000"/>
</linearGradient>
<linearGradient id="paint1_linear_3195_79083" x1="208.978" y1="104.247" x2="227.486" y2="104.247" gradientUnits="userSpaceOnUse">
<stop stop-color="white" stop-opacity="0.7"/>
<stop offset="0.302885" stop-color="white" stop-opacity="0.55"/>
<stop offset="1" stop-color="white" stop-opacity="0.4"/>
</linearGradient>
<linearGradient id="paint2_linear_3195_79083" x1="198.58" y1="104.247" x2="180.071" y2="104.247" gradientUnits="userSpaceOnUse">
<stop stop-color="white" stop-opacity="0.95"/>
<stop offset="1" stop-color="white"/>
</linearGradient>
<linearGradient id="paint3_linear_3195_79083" x1="198.58" y1="104.247" x2="217.088" y2="104.247" gradientUnits="userSpaceOnUse">
<stop stop-color="white" stop-opacity="0.7"/>
<stop offset="0.3" stop-color="white" stop-opacity="0.55"/>
<stop offset="1" stop-color="white" stop-opacity="0.4"/>
</linearGradient>
<linearGradient id="paint4_linear_3195_79083" x1="217.088" y1="133.154" x2="198.58" y2="133.154" gradientUnits="userSpaceOnUse">
<stop stop-color="white" stop-opacity="0.95"/>
<stop offset="1" stop-color="white"/>
</linearGradient>
<radialGradient id="paint5_radial_3195_79083" cx="0" cy="0" r="1" gradientUnits="userSpaceOnUse" gradientTransform="translate(203.883 107.437) rotate(90) scale(23.8115)">
<stop stop-color="white"/>
<stop offset="0.225962" stop-color="white" stop-opacity="0.4"/>
<stop offset="0.4375" stop-color="white" stop-opacity="0.22"/>
<stop offset="0.692308" stop-color="white" stop-opacity="0.08"/>
<stop offset="0.860577" stop-color="white" stop-opacity="0.0332308"/>
<stop offset="1" stop-color="white" stop-opacity="0"/>
</radialGradient>
<radialGradient id="paint6_radial_3195_79083" cx="0" cy="0" r="1" gradientUnits="userSpaceOnUse" gradientTransform="translate(203.868 107.43) rotate(90) scale(23.8261)">
<stop stop-color="white" stop-opacity="0.25"/>
<stop offset="0.230769" stop-color="white" stop-opacity="0.12"/>
<stop offset="0.528846" stop-color="white" stop-opacity="0.02"/>
<stop offset="1" stop-color="white" stop-opacity="0"/>
</radialGradient>
<radialGradient id="paint7_radial_3195_79083" cx="0" cy="0" r="1" gradientUnits="userSpaceOnUse" gradientTransform="translate(203.868 107.43) rotate(90) scale(23.8261)">
<stop stop-color="white" stop-opacity="0.25"/>
<stop offset="0.230769" stop-color="white" stop-opacity="0.12"/>
<stop offset="0.528846" stop-color="white" stop-opacity="0.02"/>
<stop offset="1" stop-color="white" stop-opacity="0"/>
</radialGradient>
</defs>
</svg>
